PathFileType	4	(X/Y/Z)	C:/Users/opensim2020/Desktop/walking_exp_matlab/subject06_walking13_straight_03.trc																																																																																																																																																				
DataRate	CameraRate	NumFrames	NumMarkers	Units	OrigDataRate	OrigDataStartFrame	OrigNumFrames																																																																																																																																																
100	100	4	50	mm	100	2186	172																																																																																																																																																
Frame#	Time	LFHD			RFHD			LBHD			RBHD			C7			T10			CLAV			STRN			RBAK			LSHO			LUPA			LELB			LFRM			LWRA			LWRB			LFIN			RSHO			RUPA			RELB			RFRM			RWRA			RWRB			RFIN			LASI			RASI			LPSI			RPSI			LTHI			LKNE			LTIB			LANK			LHEE			LTOE			RTHI			RKNE			RTIB			RANK			RHEE			RTOE			*39			*40			*41			*42			*43			*44			*45			*46			*47			*48			*49		
		X1	Y1	Z1	X2	Y2	Z2	X3	Y3	Z3	X4	Y4	Z4	X5	Y5	Z5	X6	Y6	Z6	X7	Y7	Z7	X8	Y8	Z8	X9	Y9	Z9	X10	Y10	Z10	X11	Y11	Z11	X12	Y12	Z12	X13	Y13	Z13	X14	Y14	Z14	X15	Y15	Z15	X16	Y16	Z16	X17	Y17	Z17	X18	Y18	Z18	X19	Y19	Z19	X20	Y20	Z20	X21	Y21	Z21	X22	Y22	Z22	X23	Y23	Z23	X24	Y24	Z24	X25	Y25	Z25	X26	Y26	Z26	X27	Y27	Z27	X28	Y28	Z28	X29	Y29	Z29	X30	Y30	Z30	X31	Y31	Z31	X32	Y32	Z32	X33	Y33	Z33	X34	Y34	Z34	X35	Y35	Z35	X36	Y36	Z36	X37	Y37	Z37	X38	Y38	Z38	X39	Y39	Z39	X40	Y40	Z40	X41	Y41	Z41	X42	Y42	Z42	X43	Y43	Z43	X44	Y44	Z44	X45	Y45	Z45	X46	Y46	Z46	X47	Y47	Z47	X48	Y48	Z48	X49	Y49	Z49	X50	Y50	Z50
																																																																																																																																																							
1	0	-662.85248	1644.36218	-1074.64771	-678.51733	1630.2804	-945.55646	-802.20428	1608.01465	-1092.07117	-814.47467	1599.24524	-962.99658	-826.82587	1446.12061	-1039.81799	-886.82721	1119.54602	-1034.51587	-723.26819	1359.18774	-1029.41663	-696.69586	1182.77087	-1037.01685	-919.64288	1281.73682	-972.10962	-759.27502	1399.72974	-1195.05627	-742.27771	1201.21472	-1272.88916	-729.57379	1089.28552	-1289.81958	-637.65863	972.93414	-1314.53137	-517.49274	922.04559	-1283.01123	-567.56708	875.65381	-1302.68457	-486.63535	835.85193	-1311.59204	-781.34418	1394.07715	-872.3833	-869.7525	1211.49792	-791.32263	-888.99689	1090.48352	-775.99023	-907.50653	971.82526	-754.64972	-887.79156	819.19714	-776.53217	-941.48413	838.28271	-741.02112	-929.56622	754.68848	-734.4563	-718.71191	949.85657	-1141.22888	-713.4267	958.22314	-920.0946	-875.51532	983.87872	-1110.20886	-865.37494	981.61584	-942.08081	-816.97998	640.49573	-1192.14539	-839.909	477.37027	-1171.4021	-933.49115	234.99435	-1162.88416	-980.18353	68.79921	-1116.47839	-1022.33728	59.37514	-1070.47046	-839.97638	32.50381	-1119.47852	-693.28613	635.00635	-854.8634	-639.19403	521.51715	-882.68872	-641.784	260.2612	-887.62683	-618.82471	74.96014	-928.77667	-646.47919	48.22112	-980.65363	-466.56567	48.65863	-908.54907	-763.88568	1694.26563	-1025.85498	NaN	NaN	NaN	NaN	NaN	NaN	NaN	NaN	NaN	NaN	NaN	NaN	NaN	NaN	NaN	NaN	NaN	NaN	NaN	NaN	NaN	NaN	NaN	NaN	NaN	NaN	NaN	NaN	NaN	NaN
2	0.01	-654.31061	1643.25452	-1074.651	-670.15729	1628.88269	-945.40399	-793.31311	1606.4552	-1092.36267	-806.04779	1597.4967	-963.13922	-817.7088	1444.60303	-1040.27991	-877.42596	1117.96533	-1034.5741	-713.9931	1357.85876	-1029.66614	-687.27362	1181.36267	-1037.22791	-910.43115	1280.17505	-972.73926	-749.99628	1398.24133	-1195.27295	-731.52679	1199.89612	-1272.86316	-717.99213	1088.12354	-1289.6593	-622.73071	974.61731	-1313.73767	-500.99329	928.6308	-1281.61035	-549.00385	880.22003	-1300.68445	-466.50854	843.72736	-1309.77625	-772.53247	1392.69495	-872.74463	-861.88306	1210.60925	-792.10034	-881.85272	1089.72327	-776.66693	-901.21405	971.2558	-755.22949	-882.10242	818.50952	-776.81335	-936.47986	838.05261	-741.28271	-924.47809	753.93683	-735.11255	-709.57147	948.35919	-1141.77539	-703.0813	956.89587	-920.49725	-866.30652	982.37927	-1110.22705	-855.17365	979.92517	-942.11859	-809.47577	639.39465	-1192.52722	-833.65698	476.44693	-1172.12256	-930.70319	235.1664	-1163.5553	-979.67352	69.6766	-1117.03345	-1021.90582	60.63917	-1071.21277	-839.90155	32.40275	-1119.68982	-685.13141	632.32031	-855.46326	-630.72589	518.92999	-883.66492	-622.72943	258.24478	-887.44196	-591.11407	74.11016	-928.1189	-618.29614	46.80756	-979.74023	-437.61551	51.98611	-909.8421	-755.44275	1692.73169	-1025.92029	NaN	NaN	NaN	NaN	NaN	NaN	NaN	NaN	NaN	NaN	NaN	NaN	NaN	NaN	NaN	NaN	NaN	NaN	NaN	NaN	NaN	NaN	NaN	NaN	NaN	NaN	NaN	NaN	NaN	NaN
3	0.02	-646.21832	1641.85828	-1075.16309	-661.75098	1627.51379	-945.2207	-784.47589	1604.79736	-1092.50549	-797.28363	1595.71008	-963.49316	-808.46124	1442.97351	-1040.61047	-867.92926	1116.27307	-1034.47986	-704.76172	1356.3429	-1029.7074	-677.70941	1179.89282	-1037.52063	-901.10052	1278.47375	-973.25037	-740.5506	1396.6969	-1195.4967	-720.83929	1198.44739	-1272.77881	-706.37964	1086.79724	-1289.10815	-608.02539	976.35767	-1312.95532	-484.80142	934.99243	-1279.86121	-530.87219	884.68768	-1299.02832	-446.98962	851.63623	-1307.89417	-763.58246	1391.26025	-872.95374	-854.06506	1209.646	-792.67993	-874.55133	1088.90698	-777.19189	-894.5777	970.52936	-755.69287	-876.10822	817.62439	-776.91003	-930.15747	837.64771	-741.77234	-919.84479	753.73969	-735.46637	-700.47003	946.84857	-1142.34631	-692.81189	955.00317	-921.30487	-857.14612	980.79065	-1109.97449	-845.15289	978.34753	-941.76233	-801.80719	638.35205	-1192.99414	-827.25244	475.48224	-1172.61963	-927.75677	235.48732	-1164.172	-979.13733	70.83334	-1117.56909	-1021.56952	62.32925	-1071.56335	-839.83978	32.26994	-1119.85303	-676.31445	629.78961	-855.86719	-622.42078	516.27521	-884.28699	-604.56018	256.59451	-887.28131	-564.70715	73.87735	-927.776	-591.6488	45.97361	-978.922	-409.83282	56.7732	-911.65637	-747.01764	1691.13257	-1025.93323	NaN	NaN	NaN	NaN	NaN	NaN	NaN	NaN	NaN	NaN	NaN	NaN	NaN	NaN	NaN	NaN	NaN	NaN	NaN	NaN	NaN	NaN	NaN	NaN	NaN	NaN	NaN	NaN	NaN	NaN
4	0.03	-637.17004	1640.83203	-1074.5354	-653.2149	1626.1554	-945.09436	-775.57605	1603.11609	-1092.55823	-788.70905	1593.76355	-963.53174	-799.24188	1441.34534	-1040.84131	-858.36304	1114.57788	-1034.26477	-695.36285	1354.87817	-1029.76306	-668.15253	1178.39734	-1037.51953	-891.64252	1276.66565	-973.62262	-731.09637	1395.15186	-1195.47632	-710.052	1196.90051	-1272.55457	-694.68805	1085.41553	-1288.81812	-593.54022	978.03748	-1312.04541	-469.07706	941.09521	-1277.92566	-513.17236	889.15204	-1297.49878	-428.04199	859.42999	-1306.07056	-754.55981	1389.7887	-873.06073	-845.83832	1208.59082	-793.27533	-866.98608	1087.97009	-777.5802	-887.63104	969.73083	-756.09033	-869.51379	816.75446	-776.94971	-924.03412	837.00024	-742.21198	-913.63379	752.92511	-735.92657	-691.22522	945.43176	-1142.95154	-682.52106	953.21234	-922.08832	-847.9364	979.14142	-1109.59009	-834.95782	976.7113	-941.24078	-794.15271	637.33258	-1193.55884	-820.53802	474.51978	-1172.80396	-924.82935	235.85425	-1164.73242	-978.5658	72.01308	-1117.94153	-1021.04041	63.99324	-1071.95508	-839.72784	32.18746	-1120.04382	-667.08118	627.64142	-855.97046	-613.60638	513.74121	-884.30975	-587.16119	255.14973	-887.05017	-539.99677	74.23417	-927.85052	-566.31458	45.17589	-978.57465	-384.24503	62.52214	-913.91254	-738.58984	1689.59033	-1025.92004	NaN	NaN	NaN	NaN	NaN	NaN	NaN	NaN	NaN	NaN	NaN	NaN	NaN	NaN	NaN	NaN	NaN	NaN	NaN	NaN	NaN	NaN	NaN	NaN	NaN	NaN	NaN	NaN	NaN	NaN
